<svg width="70" height="66" viewBox="0 0 70 66" fill="none" xmlns="http://www.w3.org/2000/svg">
<path d="M61.8125 0H8.0625C5.92419 0 3.87346 0.859317 2.36145 2.38891C0.84944 3.9185 0 5.99308 0 8.15625V46.2188C0 48.3819 0.84944 50.4565 2.36145 51.9861C3.87346 53.5157 5.92419 54.375 8.0625 54.375H32.25V59.8125H24.1875C23.4747 59.8125 22.7912 60.0989 22.2872 60.6088C21.7831 61.1187 21.5 61.8102 21.5 62.5312C21.5 63.2523 21.7831 63.9438 22.2872 64.4537C22.7912 64.9636 23.4747 65.25 24.1875 65.25H45.6875C46.4003 65.25 47.0838 64.9636 47.5879 64.4537C48.0919 63.9438 48.375 63.2523 48.375 62.5312C48.375 61.8102 48.0919 61.1187 47.5879 60.6088C47.0838 60.0989 46.4003 59.8125 45.6875 59.8125H37.625V54.375H61.8125C63.9508 54.375 66.0015 53.5157 67.5135 51.9861C69.0256 50.4565 69.875 48.3819 69.875 46.2188V8.15625C69.875 5.99308 69.0256 3.9185 67.5135 2.38891C66.0015 0.859317 63.9508 0 61.8125 0ZM8.0625 5.4375H61.8125C62.5253 5.4375 63.2088 5.72394 63.7129 6.2338C64.2169 6.74367 64.5 7.43519 64.5 8.15625V35.3438H5.375V8.15625C5.375 7.43519 5.65815 6.74367 6.16215 6.2338C6.66616 5.72394 7.34973 5.4375 8.0625 5.4375ZM61.8125 48.9375H8.0625C7.34973 48.9375 6.66616 48.6511 6.16215 48.1412C5.65815 47.6313 5.375 46.9398 5.375 46.2188V40.7812H64.5V46.2188C64.5 46.9398 64.2169 47.6313 63.7129 48.1412C63.2088 48.6511 62.5253 48.9375 61.8125 48.9375Z" fill="#D6D6D6"/>
</svg>
