<svg width="59" height="61" viewBox="0 0 59 61" fill="none" xmlns="http://www.w3.org/2000/svg">
<path d="M29.5057 5.98717C30.5731 5.54317 31.7364 5.40941 32.8712 5.60021C34.006 5.791 35.0697 6.29917 35.9487 7.07043L36.3484 7.45023L51.3344 23.0517C52.1483 23.8981 52.7258 24.9588 53.0052 26.1206C53.2846 27.2823 53.2554 28.5012 52.9206 29.647L52.7398 30.1754L45.2372 49.7037C44.8166 50.797 44.1227 51.7534 43.2274 52.4735C42.3321 53.1935 41.2681 53.6512 40.1457 53.7989L24.0334 55.896C23.621 55.9456 23.1832 56.0083 22.7328 56.081L21.3242 56.3188L20.5883 56.4575L18.2947 56.9198L16.7244 57.2699L14.361 57.8214L11.3314 58.5744L6.40797 59.8823L4.35865 60.4569C3.84148 60.605 3.29689 60.6155 2.7748 60.4875C2.25272 60.3595 1.76985 60.0971 1.37047 59.7244C0.97109 59.3517 0.667978 58.8805 0.488926 58.3542C0.309874 57.8278 0.260613 57.2631 0.345658 56.7118L0.453516 56.2296L1.38935 52.5571L2.22685 49.096L2.95014 45.942L3.47991 43.4816L3.81301 41.8435L4.26031 39.459L4.51409 37.9497L4.71712 36.5362L6.81086 19.0985C6.94247 18.0222 7.32683 16.9963 7.92994 16.1116C8.53305 15.2268 9.33632 14.5104 10.2687 14.0257L10.7477 13.7978L29.5057 5.98717ZM31.8595 12.1201L13.1048 19.9307L11.2521 35.3605L11.0998 36.6683C10.7889 39.0979 10.3814 41.5131 9.8785 43.9076L9.33603 46.5034L19.7666 35.6445C19.405 34.24 19.4987 32.7505 20.0331 31.4071C20.5675 30.0637 21.5128 28.9414 22.7224 28.2143C23.932 27.4872 25.3382 27.1959 26.723 27.3857C28.1077 27.5755 29.3937 28.2356 30.3813 29.2638C31.3689 30.292 32.0031 31.6307 32.1853 33.0724C32.3676 34.514 32.0879 35.978 31.3894 37.2372C30.691 38.4965 29.613 39.4806 28.3226 40.037C27.0321 40.5933 25.6014 40.6908 24.2523 40.3144L13.8217 51.1733L15.0652 50.886L17.5524 50.3411C19.1022 50.0107 20.6604 49.7244 22.2252 49.4824L39.3462 47.2498L46.8488 27.7249L31.8595 12.1201ZM39.3557 1.24134C39.9016 0.672225 40.6282 0.330025 41.3991 0.278949C42.1701 0.227872 42.9325 0.47143 43.5432 0.963923L43.8414 1.24134L57.2984 15.251C57.8734 15.8439 58.209 16.6432 58.2364 17.4853C58.2639 18.3274 57.9811 19.1486 57.446 19.7807C56.911 20.4129 56.164 20.8083 55.3581 20.8859C54.5523 20.9635 53.7483 20.7175 53.1109 20.1983L52.8127 19.9208L39.3557 5.91121C38.761 5.29189 38.4269 4.45201 38.4269 3.57628C38.4269 2.70055 38.761 1.86067 39.3557 1.24134Z" fill="#D6D6D6"/>
</svg>
